<mxfile host="app.diagrams.net" modified="2020-11-09T04:03:08.743Z" agent="5.0 (Windows NT 10.0; Win64; x64) AppleWebKit/537.36 (KHTML, like Gecko) Chrome/86.0.4240.111 Safari/537.36" etag="Cy0DiaGjZ8_Cg268YV0C" version="13.8.8" type="github">
  <diagram id="6a731a19-8d31-9384-78a2-239565b7b9f0" name="Page-1">
    <mxGraphModel dx="782" dy="-390" grid="1" gridSize="10" guides="1" tooltips="1" connect="1" arrows="1" fold="1" page="1" pageScale="1" pageWidth="1169" pageHeight="827" background="#ffffff" math="0" shadow="0">
      <root>
        <mxCell id="0" />
        <mxCell id="1" parent="0" />
        <mxCell id="90" value="&lt;h2&gt;&lt;font color=&quot;#ffffff&quot;&gt;Swagger文档&lt;/font&gt;&lt;/h2&gt;" style="rounded=1;fillColor=#23445D;strokeColor=none;strokeWidth=2;fontFamily=Helvetica;html=1;gradientColor=none;" parent="1" vertex="1">
          <mxGeometry x="240" y="960" width="160" height="40" as="geometry" />
        </mxCell>
        <mxCell id="91" value="&lt;font color=&quot;#ffffff&quot;&gt;测试用例引擎&lt;/font&gt;" style="rounded=1;fillColor=#23445D;strokeColor=none;strokeWidth=2;fontFamily=Helvetica;html=1;gradientColor=none;" parent="1" vertex="1">
          <mxGeometry x="720" y="920" width="120" height="40" as="geometry" />
        </mxCell>
        <mxCell id="92" value="&lt;h1&gt;&lt;font color=&quot;#ffffff&quot;&gt;测试生成器&lt;/font&gt;&lt;/h1&gt;" style="rounded=1;fillColor=#23445D;strokeColor=none;strokeWidth=2;fontFamily=Helvetica;html=1;gradientColor=none;" parent="1" vertex="1">
          <mxGeometry x="480" y="1000" width="160" height="120" as="geometry" />
        </mxCell>
        <mxCell id="97" value="&lt;h1&gt;&lt;font color=&quot;#ffffff&quot;&gt;测试执行&lt;/font&gt;&lt;/h1&gt;" style="rounded=1;fillColor=#23445D;strokeColor=none;strokeWidth=2;fontFamily=Helvetica;html=1;gradientColor=none;" parent="1" vertex="1">
          <mxGeometry x="960" y="1020" width="127" height="80" as="geometry" />
        </mxCell>
        <mxCell id="108" value="&lt;font color=&quot;#ffffff&quot;&gt;结果数据&lt;/font&gt;" style="rounded=1;fillColor=#23445D;strokeColor=none;strokeWidth=2;gradientColor=none;fontFamily=Helvetica;html=1;" parent="1" vertex="1">
          <mxGeometry x="960" y="1256" width="120" height="50" as="geometry" />
        </mxCell>
        <mxCell id="114" value="" style="edgeStyle=elbowEdgeStyle;elbow=horizontal;strokeWidth=3;strokeColor=#0C343D;fontFamily=Helvetica;html=1;" parent="1" target="91" edge="1">
          <mxGeometry x="6.448979591836746" y="830.5" width="131.97278911564624" height="100" as="geometry">
            <mxPoint x="639" y="1016" as="sourcePoint" />
            <mxPoint x="138.421768707483" y="830.5" as="targetPoint" />
          </mxGeometry>
        </mxCell>
        <mxCell id="119" value="" style="edgeStyle=elbowEdgeStyle;elbow=horizontal;strokeWidth=3;strokeColor=#0C343D;fontFamily=Helvetica;html=1;entryX=-0.016;entryY=0.104;entryDx=0;entryDy=0;entryPerimeter=0;" parent="1" source="91" target="97" edge="1">
          <mxGeometry x="6.448979591836746" y="830.5" width="131.97278911564624" height="100" as="geometry">
            <mxPoint x="6.448979591836746" y="930.5" as="sourcePoint" />
            <mxPoint x="138.421768707483" y="830.5" as="targetPoint" />
            <Array as="points">
              <mxPoint x="920" y="980" />
            </Array>
          </mxGeometry>
        </mxCell>
        <mxCell id="133" value="" style="edgeStyle=elbowEdgeStyle;elbow=horizontal;strokeWidth=3;strokeColor=#0C343D;fontFamily=Helvetica;html=1;" parent="1" source="97" target="108" edge="1">
          <mxGeometry x="6.448979591836746" y="830.5" width="131.97278911564624" height="100" as="geometry">
            <mxPoint x="6.448979591836746" y="930.5" as="sourcePoint" />
            <mxPoint x="138.421768707483" y="830.5" as="targetPoint" />
          </mxGeometry>
        </mxCell>
        <mxCell id="rsJ80O6-44v7srC-CNjc-143" value="&lt;h2&gt;&lt;font color=&quot;#ffffff&quot;&gt;环境部署信息&lt;/font&gt;&lt;/h2&gt;" style="rounded=1;fillColor=#23445D;strokeColor=none;strokeWidth=2;fontFamily=Helvetica;html=1;gradientColor=none;" vertex="1" parent="1">
          <mxGeometry x="240" y="1040" width="160" height="40" as="geometry" />
        </mxCell>
        <mxCell id="rsJ80O6-44v7srC-CNjc-144" value="&lt;h2&gt;&lt;font color=&quot;#ffffff&quot;&gt;数据配置&lt;/font&gt;&lt;/h2&gt;" style="rounded=1;fillColor=#23445D;strokeColor=none;strokeWidth=2;fontFamily=Helvetica;html=1;gradientColor=none;" vertex="1" parent="1">
          <mxGeometry x="240" y="1120" width="160" height="40" as="geometry" />
        </mxCell>
        <mxCell id="rsJ80O6-44v7srC-CNjc-145" value="&lt;font color=&quot;#ffffff&quot;&gt;测试数据&lt;/font&gt;" style="rounded=1;fillColor=#23445D;strokeColor=none;strokeWidth=2;fontFamily=Helvetica;html=1;gradientColor=none;" vertex="1" parent="1">
          <mxGeometry x="720" y="1000" width="120" height="40" as="geometry" />
        </mxCell>
        <mxCell id="rsJ80O6-44v7srC-CNjc-146" value="&lt;span style=&quot;color: rgb(255 , 255 , 255)&quot;&gt;验证配置&lt;/span&gt;" style="rounded=1;fillColor=#23445D;strokeColor=none;strokeWidth=2;fontFamily=Helvetica;html=1;gradientColor=none;" vertex="1" parent="1">
          <mxGeometry x="720" y="1160" width="120" height="40" as="geometry" />
        </mxCell>
        <mxCell id="rsJ80O6-44v7srC-CNjc-148" value="" style="edgeStyle=elbowEdgeStyle;elbow=horizontal;strokeWidth=3;strokeColor=#0C343D;fontFamily=Helvetica;html=1;exitX=1;exitY=0.314;exitDx=0;exitDy=0;entryX=0;entryY=0.5;entryDx=0;entryDy=0;exitPerimeter=0;" edge="1" parent="1" source="92" target="rsJ80O6-44v7srC-CNjc-145">
          <mxGeometry x="16.448979591836746" y="840.5" width="131.97278911564624" height="100" as="geometry">
            <mxPoint x="640" y="1045.5" as="sourcePoint" />
            <mxPoint x="710" y="1066" as="targetPoint" />
          </mxGeometry>
        </mxCell>
        <mxCell id="rsJ80O6-44v7srC-CNjc-150" value="" style="edgeStyle=elbowEdgeStyle;elbow=horizontal;strokeWidth=3;strokeColor=#0C343D;fontFamily=Helvetica;html=1;entryX=0;entryY=0.5;entryDx=0;entryDy=0;" edge="1" parent="1" target="rsJ80O6-44v7srC-CNjc-146">
          <mxGeometry x="26.448979591836746" y="850.5" width="131.97278911564624" height="100" as="geometry">
            <mxPoint x="640" y="1105" as="sourcePoint" />
            <mxPoint x="725.9000000000001" y="1070" as="targetPoint" />
          </mxGeometry>
        </mxCell>
        <mxCell id="rsJ80O6-44v7srC-CNjc-152" value="" style="edgeStyle=elbowEdgeStyle;elbow=horizontal;strokeWidth=3;strokeColor=#0C343D;fontFamily=Helvetica;html=1;exitX=1;exitY=0.5;exitDx=0;exitDy=0;entryX=0;entryY=0.25;entryDx=0;entryDy=0;" edge="1" parent="1" source="90" target="92">
          <mxGeometry x="16.448979591836746" y="840.5" width="131.97278911564624" height="100" as="geometry">
            <mxPoint x="650" y="1040" as="sourcePoint" />
            <mxPoint x="730" y="990" as="targetPoint" />
          </mxGeometry>
        </mxCell>
        <mxCell id="rsJ80O6-44v7srC-CNjc-153" value="" style="edgeStyle=elbowEdgeStyle;elbow=horizontal;strokeWidth=3;strokeColor=#0C343D;fontFamily=Helvetica;html=1;exitX=1;exitY=0.5;exitDx=0;exitDy=0;" edge="1" parent="1" source="rsJ80O6-44v7srC-CNjc-143">
          <mxGeometry x="26.448979591836746" y="850.5" width="131.97278911564624" height="100" as="geometry">
            <mxPoint x="660" y="1050" as="sourcePoint" />
            <mxPoint x="480" y="1060" as="targetPoint" />
          </mxGeometry>
        </mxCell>
        <mxCell id="rsJ80O6-44v7srC-CNjc-154" value="" style="edgeStyle=elbowEdgeStyle;elbow=horizontal;strokeWidth=3;strokeColor=#0C343D;fontFamily=Helvetica;html=1;exitX=1;exitY=0.5;exitDx=0;exitDy=0;entryX=0;entryY=0.75;entryDx=0;entryDy=0;" edge="1" parent="1" source="rsJ80O6-44v7srC-CNjc-144" target="92">
          <mxGeometry x="36.448979591836746" y="860.5" width="131.97278911564624" height="100" as="geometry">
            <mxPoint x="670" y="1060" as="sourcePoint" />
            <mxPoint x="750" y="1010" as="targetPoint" />
          </mxGeometry>
        </mxCell>
        <mxCell id="rsJ80O6-44v7srC-CNjc-155" value="&lt;span style=&quot;color: rgb(255 , 255 , 255)&quot;&gt;测试环境配置&lt;/span&gt;" style="rounded=1;fillColor=#23445D;strokeColor=none;strokeWidth=2;fontFamily=Helvetica;html=1;gradientColor=none;" vertex="1" parent="1">
          <mxGeometry x="720" y="1080" width="120" height="40" as="geometry" />
        </mxCell>
        <mxCell id="rsJ80O6-44v7srC-CNjc-157" value="" style="edgeStyle=elbowEdgeStyle;elbow=horizontal;strokeWidth=3;strokeColor=#0C343D;fontFamily=Helvetica;html=1;entryX=0;entryY=0.5;entryDx=0;entryDy=0;" edge="1" parent="1" target="rsJ80O6-44v7srC-CNjc-155">
          <mxGeometry x="26.448979591836746" y="850.5" width="131.97278911564624" height="100" as="geometry">
            <mxPoint x="640" y="1080" as="sourcePoint" />
            <mxPoint x="730" y="1030" as="targetPoint" />
          </mxGeometry>
        </mxCell>
        <mxCell id="rsJ80O6-44v7srC-CNjc-158" value="" style="edgeStyle=elbowEdgeStyle;elbow=horizontal;strokeWidth=3;strokeColor=#0C343D;fontFamily=Helvetica;html=1;exitX=1;exitY=0.5;exitDx=0;exitDy=0;entryX=-0.021;entryY=0.354;entryDx=0;entryDy=0;entryPerimeter=0;" edge="1" parent="1" source="rsJ80O6-44v7srC-CNjc-145" target="97">
          <mxGeometry x="16.448979591836746" y="840.5" width="131.97278911564624" height="100" as="geometry">
            <mxPoint x="850" y="950" as="sourcePoint" />
            <mxPoint x="950" y="1052" as="targetPoint" />
          </mxGeometry>
        </mxCell>
        <mxCell id="rsJ80O6-44v7srC-CNjc-159" value="" style="edgeStyle=elbowEdgeStyle;elbow=horizontal;strokeWidth=3;strokeColor=#0C343D;fontFamily=Helvetica;html=1;exitX=1;exitY=0.5;exitDx=0;exitDy=0;" edge="1" parent="1" source="rsJ80O6-44v7srC-CNjc-155">
          <mxGeometry x="26.448979591836746" y="850.5" width="131.97278911564624" height="100" as="geometry">
            <mxPoint x="860" y="960" as="sourcePoint" />
            <mxPoint x="957" y="1070" as="targetPoint" />
          </mxGeometry>
        </mxCell>
        <mxCell id="rsJ80O6-44v7srC-CNjc-160" value="" style="edgeStyle=elbowEdgeStyle;elbow=horizontal;strokeWidth=3;strokeColor=#0C343D;fontFamily=Helvetica;html=1;exitX=0.5;exitY=1;exitDx=0;exitDy=0;entryX=0.5;entryY=0;entryDx=0;entryDy=0;" edge="1" parent="1" source="rsJ80O6-44v7srC-CNjc-146" target="rsJ80O6-44v7srC-CNjc-163">
          <mxGeometry x="25.948979591836746" y="870.5" width="131.97278911564624" height="100" as="geometry">
            <mxPoint x="779.5" y="1220" as="sourcePoint" />
            <mxPoint x="779.5" y="1360" as="targetPoint" />
            <Array as="points">
              <mxPoint x="779.5" y="1230" />
              <mxPoint x="773.5" y="1270" />
            </Array>
          </mxGeometry>
        </mxCell>
        <mxCell id="rsJ80O6-44v7srC-CNjc-162" value="" style="edgeStyle=elbowEdgeStyle;elbow=horizontal;strokeWidth=3;strokeColor=#0C343D;fontFamily=Helvetica;html=1;exitX=0;exitY=0.5;exitDx=0;exitDy=0;entryX=1;entryY=0.5;entryDx=0;entryDy=0;" edge="1" parent="1" source="108" target="rsJ80O6-44v7srC-CNjc-163">
          <mxGeometry x="106.44897959183675" y="1070.5" width="131.97278911564624" height="100" as="geometry">
            <mxPoint x="910" y="1390" as="sourcePoint" />
            <mxPoint x="850" y="1350" as="targetPoint" />
            <Array as="points">
              <mxPoint x="880" y="1320" />
              <mxPoint x="930" y="1290" />
            </Array>
          </mxGeometry>
        </mxCell>
        <mxCell id="rsJ80O6-44v7srC-CNjc-163" value="&lt;h1&gt;&lt;font color=&quot;#ffffff&quot;&gt;报告生成器&lt;/font&gt;&lt;/h1&gt;" style="rounded=1;fillColor=#23445D;strokeColor=none;strokeWidth=2;fontFamily=Helvetica;html=1;gradientColor=none;" vertex="1" parent="1">
          <mxGeometry x="716.5" y="1241" width="127" height="80" as="geometry" />
        </mxCell>
        <mxCell id="rsJ80O6-44v7srC-CNjc-164" value="&lt;font color=&quot;#ffffff&quot;&gt;测试报告&lt;/font&gt;" style="rounded=1;fillColor=#23445D;strokeColor=none;strokeWidth=2;gradientColor=none;fontFamily=Helvetica;html=1;" vertex="1" parent="1">
          <mxGeometry x="520" y="1256" width="120" height="50" as="geometry" />
        </mxCell>
        <mxCell id="rsJ80O6-44v7srC-CNjc-165" value="" style="edgeStyle=elbowEdgeStyle;elbow=horizontal;strokeWidth=3;strokeColor=#0C343D;fontFamily=Helvetica;html=1;exitX=0;exitY=0.5;exitDx=0;exitDy=0;entryX=1;entryY=0.5;entryDx=0;entryDy=0;" edge="1" parent="1" source="rsJ80O6-44v7srC-CNjc-163" target="rsJ80O6-44v7srC-CNjc-164">
          <mxGeometry x="-203.55102040816325" y="1139.5" width="131.97278911564624" height="100" as="geometry">
            <mxPoint x="650" y="1350" as="sourcePoint" />
            <mxPoint x="533.5" y="1350" as="targetPoint" />
            <Array as="points">
              <mxPoint x="680" y="1281" />
              <mxPoint x="620" y="1359" />
            </Array>
          </mxGeometry>
        </mxCell>
      </root>
    </mxGraphModel>
  </diagram>
</mxfile>
